<svg xmlns="http://www.w3.org/2000/svg" viewBox="0 0 86 30" width="86" height="30" font-family="Segoe UI, Ubuntu, Helvetica, Arial, sans-serif"><title>Docker</title><g opacity="0"><animate attributeName="opacity" from="0" to="1" begin="0s" dur="0.5s" fill="freeze"/><g><animateTransform attributeName="transform" type="translate" values="0 1.2;0 -1.2;0 1.2" calcMode="spline" keySplines="0.4 0 0.6 1;0.4 0 0.6 1" keyTimes="0;0.5;1" dur="4.5s" begin="-1.5s" repeatCount="indefinite"/><rect x="1" y="4" width="84" height="22" rx="11" fill="#2496ED" fill-opacity="0.07" stroke="#2496ED" stroke-width="1.3"/><g transform="translate(10,7) scale(0.55)"><path d="M19.5 8.5h-2c-.3-.9-.7-1.6-1.3-2.2l1.4-1.4-1.4-1.4-1.4 1.4c-.6-.5-1.3-.9-2.2-1.3V2h-2v1.6c-.9.3-1.6.7-2.2 1.3L6.6 3.5 5.2 4.9l1.4 1.4c-.6.6-1 1.3-1.3 2.2h-2v2h2c.1.3.2.7.4 1l-1.8 1.8 1.4 1.4 1.8-1.8c.7.5 1.5.9 2.4 1.1.1 1 .4 1.8.8 2.4H9.2v2h5.6v-2h-1.1c.4-.6.7-1.4.8-2.4.9-.2 1.7-.6 2.4-1.1l1.8 1.8 1.4-1.4-1.8-1.8c.2-.3.3-.7.4-1h2v-2h-2zM10 13.2c-1.2 0-2.2-1-2.2-2.2S8.8 8.8 10 8.8s2.2 1 2.2 2.2-1 2.2-2.2 2.2z" fill="#2496ED"/></g><text x="28" y="19" font-size="12" font-weight="600" fill="#2496ED">Docker</text></g></g></svg>