<svg xmlns="http://www.w3.org/2000/svg" viewBox="0 0 70 30" width="70" height="30" font-family="Segoe UI, Ubuntu, Helvetica, Arial, sans-serif"><title>Git</title><g opacity="0"><animate attributeName="opacity" from="0" to="1" begin="0s" dur="0.5s" fill="freeze"/><g><animateTransform attributeName="transform" type="translate" values="0 1.2;0 -1.2;0 1.2" calcMode="spline" keySplines="0.4 0 0.6 1;0.4 0 0.6 1" keyTimes="0;0.5;1" dur="4.0s" begin="-2.0s" repeatCount="indefinite"/><rect x="1" y="4" width="68" height="22" rx="11" fill="#F05032" fill-opacity="0.07" stroke="#F05032" stroke-width="1.3"/><g transform="translate(10,7) scale(0.55)"><path d="M23.5 10.9L13.1.5c-.6-.6-1.7-.6-2.3 0L8.6 2.7l2.9 2.9c.7-.2 1.5-.1 2 .5.6.6.7 1.4.4 2.1l2.8 2.8c.7-.3 1.5-.2 2.1.5.8.8.8 2 0 2.8-.8.8-2 .8-2.8 0-.6-.6-.7-1.5-.4-2.2l-2.6-2.6v6.9c.2.1.4.3.6.5.8.8.8 2 0 2.8-.8.8-2 .8-2.8 0-.8-.8-.8-2 0-2.8.2-.2.4-.3.7-.4v-7c-.3-.1-.5-.2-.7-.4-.6-.6-.7-1.4-.5-2.1L5.5 8.4.5 13.3c-.6.6-.6 1.7 0 2.3L10.9 26c.6.6 1.7.6 2.3 0L23.5 13.2c.7-.6.7-1.7 0-2.3z" fill="#F05032"/></g><text x="28" y="19" font-size="12" font-weight="600" fill="#F05032">Git</text></g></g></svg>