<svg xmlns="http://www.w3.org/2000/svg" viewBox="0 0 86 30" width="86" height="30" font-family="Segoe UI, Ubuntu, Helvetica, Arial, sans-serif"><title>GitHub</title><g opacity="0"><animate attributeName="opacity" from="0" to="1" begin="0s" dur="0.5s" fill="freeze"/><g><animateTransform attributeName="transform" type="translate" values="0 1.2;0 -1.2;0 1.2" calcMode="spline" keySplines="0.4 0 0.6 1;0.4 0 0.6 1" keyTimes="0;0.5;1" dur="5.9s" begin="-1.9s" repeatCount="indefinite"/><rect x="1" y="4" width="84" height="22" rx="11" fill="#6e5494" fill-opacity="0.07" stroke="#6e5494" stroke-width="1.3"/><g transform="translate(10,7) scale(0.55)"><path d="M12 0C5.4 0 0 5.4 0 12c0 5.3 3.4 9.8 8.2 11.4.6.1.8-.3.8-.6v-2c-3.3.7-4-1.6-4-1.6-.5-1.4-1.3-1.8-1.3-1.8-1.1-.7.1-.7.1-.7 1.2.1 1.8 1.2 1.8 1.2 1.1 1.8 2.8 1.3 3.5 1 .1-.8.4-1.3.8-1.6-2.7-.3-5.5-1.3-5.5-5.9 0-1.3.5-2.4 1.2-3.2-.1-.3-.5-1.5.1-3.2 0 0 1-.3 3.3 1.2 1-.3 2-.4 3-.4s2 .1 3 .4c2.3-1.6 3.3-1.2 3.3-1.2.7 1.7.2 2.9.1 3.2.8.8 1.2 1.9 1.2 3.2 0 4.6-2.8 5.6-5.5 5.9.4.4.8 1.1.8 2.2v3.3c0 .3.2.7.8.6C20.6 21.8 24 17.3 24 12c0-6.6-5.4-12-12-12z" fill="#6e5494"/></g><text x="28" y="19" font-size="12" font-weight="600" fill="#6e5494">GitHub</text></g></g></svg>