<svg xmlns="http://www.w3.org/2000/svg" viewBox="0 0 78 30" width="78" height="30" font-family="Segoe UI, Ubuntu, Helvetica, Arial, sans-serif"><title>Linux</title><g opacity="0"><animate attributeName="opacity" from="0" to="1" begin="0s" dur="0.5s" fill="freeze"/><g><animateTransform attributeName="transform" type="translate" values="0 1.2;0 -1.2;0 1.2" calcMode="spline" keySplines="0.4 0 0.6 1;0.4 0 0.6 1" keyTimes="0;0.5;1" dur="5.3s" begin="-0.3s" repeatCount="indefinite"/><rect x="1" y="4" width="76" height="22" rx="11" fill="#FCC624" fill-opacity="0.07" stroke="#FCC624" stroke-width="1.3"/><g transform="translate(10,7) scale(0.55)"><path d="M12 2C6.5 2 2 6.5 2 12s4.5 10 10 10 10-4.5 10-10S17.5 2 12 2zm0 1.6c.7 0 1.3.6 1.3 1.3S12.7 6.2 12 6.2s-1.3-.6-1.3-1.3.6-1.3 1.3-1.3zm-2.5 2c.5 0 .9.4.9.9s-.4.9-.9.9-.9-.4-.9-.9.4-.9.9-.9zm-2.6 1.9c.3 0 .5.2.5.5v.5c0 .3-.2.5-.5.5s-.5-.2-.5-.5v-.5c0-.3.2-.5.5-.5zm10.2 0c.3 0 .5.2.5.5v.5c0 .3-.2.5-.5.5s-.5-.2-.5-.5v-.5c0-.3.2-.5.5-.5zm-6.4 1.1c1.1 0 2 .9 2 2h-.7c0-.7-.6-1.3-1.3-1.3s-1.3.6-1.3 1.3H8.7c0-1.1.9-2 2-2zm-3.2 2c.2 0 .4.2.4.4v.4c0 .2-.2.4-.4.4-.2 0-.4-.2-.4-.4v-.4c0-.2.2-.4.4-.4zm12.8 0c.2 0 .4.2.4.4v.4c0 .2-.2.4-.4.4-.2 0-.4-.2-.4-.4v-.4c0-.2.2-.4.4-.4zm-9.6 1.5c.7 0 1.3.6 1.3 1.3h-.7c0-.3-.3-.6-.6-.6s-.6.3-.6.6h-.7c0-.7.6-1.3 1.3-1.3zm-3.8 1.3c.2 0 .4.2.4.4s-.2.4-.4.4-.4-.2-.4-.4.2-.4.4-.4zm13.8 0c.2 0 .4.2.4.4s-.2.4-.4.4-.4-.2-.4-.4.2-.4.4-.4zm-6.2 1c.9 0 1.6.7 1.6 1.6H9.8c0-.9.7-1.6 1.6-1.6zM9.3 16l-.4.4c-.2.2-.2.5 0 .7l.1.1h-.1l-.3.3c.2.3.3.7.3 1.1v.9c0 .5.2 1 .6 1.4l.6.6c-.2 0-.4.1-.4.3 0 .2.2.3.4.3h3.8c.2 0 .3-.1.3-.3 0-.2-.1-.3-.3-.3l.6-.6c.4-.4.6-.9.6-1.4v-.9c0-.4.1-.8.3-1.1l-.3-.3h-.1l.1-.1c.2-.2.2-.5 0-.7l-.4-.4c-.1.2-.3.3-.4.3-.2 0-.3-.1-.4-.3l-.6-.6H9.7l-.6.6c-.1.2-.2.3-.4.3-.1 0-.3-.1-.4-.3z" fill="#FCC624"/></g><text x="28" y="19" font-size="12" font-weight="600" fill="#FCC624">Linux</text></g></g></svg>