<svg xmlns="http://www.w3.org/2000/svg" viewBox="0 0 86 30" width="86" height="30" font-family="Segoe UI, Ubuntu, Helvetica, Arial, sans-serif"><title>Python</title><g opacity="0"><animate attributeName="opacity" from="0" to="1" begin="0s" dur="0.5s" fill="freeze"/><g><animateTransform attributeName="transform" type="translate" values="0 1.2;0 -1.2;0 1.2" calcMode="spline" keySplines="0.4 0 0.6 1;0.4 0 0.6 1" keyTimes="0;0.5;1" dur="5.7s" begin="-0.7s" repeatCount="indefinite"/><rect x="1" y="4" width="84" height="22" rx="11" fill="#3776AB" fill-opacity="0.07" stroke="#3776AB" stroke-width="1.3"/><g transform="translate(10,7) scale(0.55)"><path d="M12.03 0C7.5 0 6.4 2 6.4 4.4v3.2h5.6v1.1H4.4C2.4 8.7 0 10.1 0 13.6s2.2 4.8 4.4 4.8h2.6v-2.3c0-2.5 2.2-4.7 4.4-4.7h3.5c2 0 3.5-1.6 3.5-3.5V4.4C18.4 1.9 16.5 0 12 0zM9.2 2.7c.7 0 1.3.6 1.3 1.3s-.6 1.3-1.3 1.3-1.3-.6-1.3-1.3.6-1.3 1.3-1.3zm-4.7 12c.7 0 1.3.6 1.3 1.3s-.6 1.3-1.3 1.3-1.3-.6-1.3-1.3.6-1.3 1.3-1.3z" fill="#3776AB"/></g><text x="28" y="19" font-size="12" font-weight="600" fill="#3776AB">Python</text></g></g></svg>